# xmcd CD database file generated by freedbAccess_ocx
#
# Track frame offsets:
#       150
#       9157
#       21523
#       41745
#       56315
#       69885
#       85967
#       98333
#       114798
#       128245
#       143227
#
# Disc length: 2209 seconds
#
# Revision: 0
# Processed by: cddbd v1.4PL0 Copyright (c) Steve Scherf et al.
# Submitted via: CDnGo 2.00
#
DISCID=7f089f0b
DTITLE=Xavier Merlet - Je n'adulterai pas
DYEAR=2003
DGENRE=Other
TTITLE0=Je n'adulterai pas
TTITLE1=Elle a tout
TTITLE2=Ils se fatiguent
TTITLE3=Les balles
TTITLE4=Blonde platine
TTITLE5=Le lion
TTITLE6=Baladin
TTITLE7=Etourdi d'amour
TTITLE8=Les vacances commencent
TTITLE9=Seultitude
TTITLE10=Timide
EXTD=
EXTT0=
EXTT1=
EXTT2=
EXTT3=
EXTT4=
EXTT5=
EXTT6=
EXTT7=
EXTT8=
EXTT9=
EXTT10=
PLAYORDER=
